#pragma bank 2
#include "hUGEDriver.h"
#include <stddef.h>

static const unsigned char order_cnt = 10;

static const unsigned char P0[] = {
    DN(___,0,0xE00),
    DN(___,0,0x000),
    DN(___,0,0x000),
    DN(___,0,0x000),
    DN(___,0,0x000),
    DN(___,0,0x000),
    DN(___,0,0x000),
    DN(___,0,0x000),
    DN(___,0,0x000),
    DN(___,0,0x000),
    DN(___,0,0x000),
    DN(___,0,0x000),
    DN(___,0,0x000),
    DN(___,0,0x000),
    DN(___,0,0x000),
    DN(___,0,0x000),
    DN(___,0,0x000),
    DN(___,0,0x000),
    DN(___,0,0x000),
    DN(___,0,0x000),
    DN(___,0,0x000),
    DN(___,0,0x000),
    DN(___,0,0x000),
    DN(___,0,0x000),
    DN(___,0,0x000),
    DN(___,0,0x000),
    DN(___,0,0x000),
    DN(___,0,0x000),
    DN(___,0,0x000),
    DN(___,0,0x000),
    DN(___,0,0x000),
    DN(___,0,0x000),
    DN(___,0,0x000),
    DN(___,0,0x000),
    DN(___,0,0x000),
    DN(___,0,0x000),
    DN(___,0,0x000),
    DN(___,0,0x000),
    DN(___,0,0x000),
    DN(___,0,0x000),
    DN(___,0,0x000),
    DN(___,0,0x000),
    DN(___,0,0x000),
    DN(___,0,0x000),
    DN(___,0,0x000),
    DN(___,0,0x000),
    DN(___,0,0x000),
    DN(___,0,0x000),
    DN(___,0,0x000),
    DN(___,0,0x000),
    DN(___,0,0x000),
    DN(___,0,0x000),
    DN(___,0,0x000),
    DN(___,0,0x000),
    DN(___,0,0x000),
    DN(___,0,0x000),
    DN(___,0,0x000),
    DN(___,0,0x000),
    DN(___,0,0x000),
    DN(___,0,0x000),
    DN(___,0,0x000),
    DN(___,0,0x000),
    DN(___,0,0x000),
    DN(___,0,0x000),
};
static const unsigned char P2[] = {
    DN(F_4,1,0x000),
    DN(___,0,0x000),
    DN(___,0,0x000),
    DN(___,0,0x000),
    DN(F_4,1,0x000),
    DN(___,0,0x000),
    DN(___,0,0x000),
    DN(___,0,0x000),
    DN(F_4,1,0x000),
    DN(___,0,0x000),
    DN(Ds4,1,0x000),
    DN(___,0,0x000),
    DN(___,0,0x000),
    DN(___,0,0x000),
    DN(Ds4,1,0x000),
    DN(___,0,0x000),
    DN(F_4,1,0x000),
    DN(___,0,0x000),
    DN(___,0,0x000),
    DN(___,0,0x000),
    DN(F_4,1,0x000),
    DN(___,0,0x000),
    DN(___,0,0x000),
    DN(___,0,0x000),
    DN(F_4,1,0x000),
    DN(___,0,0x000),
    DN(G_4,1,0x000),
    DN(___,0,0x000),
    DN(___,0,0x000),
    DN(___,0,0x000),
    DN(Gs4,1,0x000),
    DN(___,0,0x000),
    DN(As4,1,0x000),
    DN(___,0,0x000),
    DN(___,0,0x000),
    DN(___,0,0x000),
    DN(As4,1,0x000),
    DN(___,0,0x000),
    DN(___,0,0x000),
    DN(___,0,0x000),
    DN(As4,1,0x000),
    DN(___,0,0x000),
    DN(As4,1,0x000),
    DN(___,0,0x000),
    DN(___,0,0x000),
    DN(___,0,0x000),
    DN(As4,1,0x000),
    DN(___,0,0x000),
    DN(Gs4,1,0x000),
    DN(___,0,0x000),
    DN(___,0,0x000),
    DN(___,0,0x000),
    DN(Gs4,1,0x000),
    DN(___,0,0x000),
    DN(___,0,0x000),
    DN(___,0,0x000),
    DN(Gs4,1,0x000),
    DN(___,0,0x000),
    DN(Ds4,1,0x000),
    DN(___,0,0x000),
    DN(___,0,0x000),
    DN(___,0,0x000),
    DN(Ds4,1,0x000),
    DN(___,0,0x000),
};
static const unsigned char P3[] = {
    DN(F_5,2,0x000),
    DN(___,0,0x000),
    DN(F_5,2,0x000),
    DN(___,0,0x000),
    DN(F_5,1,0x000),
    DN(___,0,0x000),
    DN(F_5,2,0x000),
    DN(___,0,0x000),
    DN(F_5,2,0x000),
    DN(___,0,0x000),
    DN(F_5,2,0x000),
    DN(___,0,0x000),
    DN(F_5,1,0x000),
    DN(___,0,0x000),
    DN(F_5,2,0x000),
    DN(___,0,0x000),
    DN(F_5,2,0x000),
    DN(___,0,0x000),
    DN(F_5,2,0x000),
    DN(___,0,0x000),
    DN(F_5,1,0x000),
    DN(___,0,0x000),
    DN(F_5,2,0x000),
    DN(___,0,0x000),
    DN(F_5,2,0x000),
    DN(___,0,0x000),
    DN(F_5,2,0x000),
    DN(___,0,0x000),
    DN(F_5,1,0x000),
    DN(___,0,0x000),
    DN(F_5,2,0x000),
    DN(___,0,0x000),
    DN(F_5,2,0x000),
    DN(___,0,0x000),
    DN(F_5,2,0x000),
    DN(___,0,0x000),
    DN(F_4,1,0x000),
    DN(___,0,0x000),
    DN(F_5,2,0x000),
    DN(___,0,0x000),
    DN(F_5,2,0x000),
    DN(___,0,0x000),
    DN(F_5,2,0x000),
    DN(___,0,0x000),
    DN(F_4,1,0x000),
    DN(___,0,0x000),
    DN(F_5,2,0x000),
    DN(___,0,0x000),
    DN(F_5,2,0x000),
    DN(___,0,0x000),
    DN(F_5,2,0x000),
    DN(___,0,0x000),
    DN(F_4,1,0x000),
    DN(___,0,0x000),
    DN(F_5,2,0x000),
    DN(___,0,0x000),
    DN(F_5,2,0x000),
    DN(___,0,0x000),
    DN(F_5,2,0x000),
    DN(___,0,0x000),
    DN(F_4,1,0x000),
    DN(___,0,0x000),
    DN(F_5,2,0x000),
    DN(___,0,0x000),
};
static const unsigned char P4[] = {
    DN(F_5,2,0x000),
    DN(___,0,0x000),
    DN(___,0,0x000),
    DN(___,0,0x000),
    DN(F_5,2,0x000),
    DN(___,0,0x000),
    DN(___,0,0x000),
    DN(___,0,0x000),
    DN(F_5,2,0x000),
    DN(___,0,0x000),
    DN(Ds5,2,0x000),
    DN(___,0,0x000),
    DN(___,0,0x000),
    DN(___,0,0x000),
    DN(Ds5,2,0x000),
    DN(___,0,0x000),
    DN(F_5,2,0x000),
    DN(___,0,0x000),
    DN(___,0,0x000),
    DN(___,0,0x000),
    DN(F_5,2,0x000),
    DN(___,0,0x000),
    DN(___,0,0x000),
    DN(___,0,0x000),
    DN(F_5,2,0x000),
    DN(___,0,0x000),
    DN(G_5,2,0x000),
    DN(___,0,0x000),
    DN(___,0,0x000),
    DN(___,0,0x000),
    DN(Gs5,2,0x000),
    DN(___,0,0x000),
    DN(As5,2,0x000),
    DN(___,0,0x000),
    DN(___,0,0x000),
    DN(___,0,0x000),
    DN(As5,2,0x000),
    DN(___,0,0x000),
    DN(___,0,0x000),
    DN(___,0,0x000),
    DN(As5,2,0x000),
    DN(___,0,0x000),
    DN(As5,2,0x000),
    DN(___,0,0x000),
    DN(___,0,0x000),
    DN(___,0,0x000),
    DN(As5,2,0x000),
    DN(___,0,0x000),
    DN(Gs5,2,0x000),
    DN(___,0,0x000),
    DN(___,0,0x000),
    DN(___,0,0x000),
    DN(Gs5,2,0x000),
    DN(___,0,0x000),
    DN(___,0,0x000),
    DN(___,0,0x000),
    DN(Gs5,2,0x000),
    DN(___,0,0x000),
    DN(Ds5,2,0x000),
    DN(___,0,0x000),
    DN(___,0,0x000),
    DN(___,0,0x000),
    DN(Ds5,2,0x000),
    DN(___,0,0x000),
};
static const unsigned char P5[] = {
    DN(C_5,2,0x000),
    DN(___,0,0x000),
    DN(___,0,0x000),
    DN(___,0,0x000),
    DN(C_5,2,0x000),
    DN(___,0,0x000),
    DN(___,0,0x000),
    DN(___,0,0x000),
    DN(C_5,2,0x000),
    DN(___,0,0x000),
    DN(As4,2,0x000),
    DN(___,0,0x000),
    DN(___,0,0x000),
    DN(___,0,0x000),
    DN(As4,2,0x000),
    DN(___,0,0x000),
    DN(C_5,2,0x000),
    DN(___,0,0x000),
    DN(___,0,0x000),
    DN(___,0,0x000),
    DN(C_5,2,0x000),
    DN(___,0,0x000),
    DN(___,0,0x000),
    DN(___,0,0x000),
    DN(C_5,2,0x000),
    DN(___,0,0x000),
    DN(D_5,2,0x000),
    DN(___,0,0x000),
    DN(___,0,0x000),
    DN(___,0,0x000),
    DN(Ds5,2,0x000),
    DN(___,0,0x000),
    DN(F_5,2,0x000),
    DN(___,0,0x000),
    DN(___,0,0x000),
    DN(___,0,0x000),
    DN(F_5,2,0x000),
    DN(___,0,0x000),
    DN(___,0,0x000),
    DN(___,0,0x000),
    DN(F_5,2,0x000),
    DN(___,0,0x000),
    DN(F_5,2,0x000),
    DN(___,0,0x000),
    DN(___,0,0x000),
    DN(___,0,0x000),
    DN(F_5,2,0x000),
    DN(___,0,0x000),
    DN(Ds5,2,0x000),
    DN(___,0,0x000),
    DN(___,0,0x000),
    DN(___,0,0x000),
    DN(Ds5,2,0x000),
    DN(___,0,0x000),
    DN(___,0,0x000),
    DN(___,0,0x000),
    DN(Ds5,2,0x000),
    DN(___,0,0x000),
    DN(As4,2,0x000),
    DN(___,0,0x000),
    DN(___,0,0x000),
    DN(___,0,0x000),
    DN(As4,2,0x000),
    DN(___,0,0x000),
};
static const unsigned char P6[] = {
    DN(F_5,4,0x000),
    DN(___,0,0x000),
    DN(___,0,0x000),
    DN(___,0,0x000),
    DN(G_5,4,0x000),
    DN(___,0,0x000),
    DN(___,0,0x000),
    DN(___,0,0x000),
    DN(Gs5,4,0x000),
    DN(___,0,0x000),
    DN(F_5,4,0x000),
    DN(___,0,0x000),
    DN(___,0,0x000),
    DN(___,0,0x000),
    DN(As5,4,0x000),
    DN(___,0,0x000),
    DN(___,0,0x000),
    DN(___,0,0x000),
    DN(___,0,0x000),
    DN(___,0,0x000),
    DN(Gs5,4,0x000),
    DN(___,0,0x000),
    DN(___,0,0x000),
    DN(___,0,0x000),
    DN(G_5,4,0x000),
    DN(___,0,0x000),
    DN(___,0,0x000),
    DN(___,0,0x000),
    DN(Gs5,4,0x000),
    DN(___,0,0x000),
    DN(___,0,0x000),
    DN(___,0,0x000),
    DN(Ds5,4,0x000),
    DN(___,0,0x000),
    DN(___,0,0x000),
    DN(___,0,0x000),
    DN(F_5,4,0x000),
    DN(___,0,0x000),
    DN(___,0,0x000),
    DN(___,0,0x000),
    DN(G_5,4,0x000),
    DN(___,0,0x000),
    DN(___,0,0x000),
    DN(___,0,0x000),
    DN(Gs5,4,0x000),
    DN(___,0,0x000),
    DN(G_5,4,0x000),
    DN(___,0,0x000),
    DN(___,0,0x000),
    DN(___,0,0x000),
    DN(___,0,0x000),
    DN(___,0,0x000),
    DN(Ds5,4,0x000),
    DN(___,0,0x000),
    DN(___,0,0x000),
    DN(___,0,0x000),
    DN(Cs5,4,0x000),
    DN(___,0,0x000),
    DN(___,0,0x000),
    DN(___,0,0x000),
    DN(As5,4,0x000),
    DN(___,0,0x000),
    DN(___,0,0x000),
    DN(___,0,0x000),
};
static const unsigned char P7[] = {
    DN(___,0,0x000),
    DN(___,0,0x000),
    DN(F_4,5,0x000),
    DN(___,0,0x000),
    DN(F_4,5,0x000),
    DN(___,0,0x000),
    DN(Ds4,5,0x000),
    DN(___,0,0x000),
    DN(___,0,0x000),
    DN(___,0,0x000),
    DN(F_4,5,0x000),
    DN(___,0,0x000),
    DN(F_4,5,0x000),
    DN(___,0,0x000),
    DN(Ds4,5,0x000),
    DN(___,0,0x000),
    DN(___,0,0x000),
    DN(___,0,0x000),
    DN(F_4,5,0x000),
    DN(___,0,0x000),
    DN(F_4,5,0x000),
    DN(___,0,0x000),
    DN(Ds4,5,0x000),
    DN(___,0,0x000),
    DN(___,0,0x000),
    DN(___,0,0x000),
    DN(F_4,5,0x000),
    DN(___,0,0x000),
    DN(F_4,5,0x000),
    DN(___,0,0x000),
    DN(Ds4,5,0x000),
    DN(___,0,0x000),
    DN(___,0,0x000),
    DN(___,0,0x000),
    DN(Ds4,5,0x000),
    DN(___,0,0x000),
    DN(Ds4,5,0x000),
    DN(___,0,0x000),
    DN(D_4,5,0x000),
    DN(___,0,0x000),
    DN(___,0,0x000),
    DN(___,0,0x000),
    DN(Ds4,5,0x000),
    DN(___,0,0x000),
    DN(Ds4,5,0x000),
    DN(___,0,0x000),
    DN(D_4,5,0x000),
    DN(___,0,0x000),
    DN(___,0,0x000),
    DN(___,0,0x000),
    DN(F_4,5,0x000),
    DN(___,0,0x000),
    DN(F_4,5,0x000),
    DN(___,0,0x000),
    DN(Ds4,5,0x000),
    DN(___,0,0x000),
    DN(___,0,0x000),
    DN(___,0,0x000),
    DN(D_4,5,0x000),
    DN(___,0,0x000),
    DN(Ds4,5,0x000),
    DN(___,0,0x000),
    DN(F_4,5,0x000),
    DN(___,0,0x000),
};
static const unsigned char P8[] = {
    DN(F_6,4,0x000),
    DN(___,0,0x000),
    DN(F_6,4,0x000),
    DN(___,0,0x000),
    DN(G_6,4,0x000),
    DN(___,0,0x000),
    DN(F_6,4,0x000),
    DN(___,0,0x000),
    DN(F_6,4,0x000),
    DN(___,0,0x000),
    DN(Gs6,4,0x000),
    DN(___,0,0x000),
    DN(F_6,4,0x000),
    DN(___,0,0x000),
    DN(F_6,4,0x000),
    DN(___,0,0x000),
    DN(As6,4,0x000),
    DN(___,0,0x000),
    DN(F_6,4,0x000),
    DN(___,0,0x000),
    DN(F_6,4,0x000),
    DN(___,0,0x000),
    DN(G_6,4,0x000),
    DN(___,0,0x000),
    DN(F_6,4,0x000),
    DN(___,0,0x000),
    DN(F_6,4,0x000),
    DN(___,0,0x000),
    DN(Gs6,4,0x000),
    DN(___,0,0x000),
    DN(F_6,4,0x000),
    DN(___,0,0x000),
    DN(Ds6,4,0x000),
    DN(___,0,0x000),
    DN(Gs6,4,0x000),
    DN(___,0,0x000),
    DN(G_6,4,0x000),
    DN(___,0,0x000),
    DN(Ds6,4,0x000),
    DN(___,0,0x000),
    DN(F_6,4,0x000),
    DN(___,0,0x000),
    DN(Ds6,4,0x000),
    DN(___,0,0x000),
    DN(Ds6,4,0x000),
    DN(___,0,0x000),
    DN(Gs6,4,0x000),
    DN(___,0,0x000),
    DN(___,0,0x000),
    DN(___,0,0x000),
    DN(G_6,4,0x000),
    DN(___,0,0x000),
    DN(F_6,4,0x000),
    DN(___,0,0x000),
    DN(Ds6,4,0x000),
    DN(___,0,0x000),
    DN(___,0,0x000),
    DN(___,0,0x000),
    DN(F_6,2,0x000),
    DN(___,0,0x000),
    DN(F_6,2,0x000),
    DN(___,0,0x000),
    DN(F_6,2,0x000),
    DN(___,0,0x000),
};

static const unsigned char* const order1[] = {P0,P4,P4,P6,P8};
static const unsigned char* const order2[] = {P0,P5,P5,P7,P7};
static const unsigned char* const order3[] = {P2,P2,P2,P2,P2};
static const unsigned char* const order4[] = {P3,P3,P3,P3,P3};

static const unsigned char duty_instruments[] = {
8,0,208,128,
8,64,208,128,
8,128,240,128,
8,192,240,128,
8,0,241,128,
8,64,241,128,
8,128,241,128,
8,192,241,128,
8,128,240,128,
8,128,240,128,
8,128,240,128,
8,128,240,128,
8,128,240,128,
8,128,240,128,
8,128,240,128,
};
static const unsigned char wave_instruments[] = {
0,32,0,128,
0,32,1,128,
0,32,2,128,
0,32,3,128,
0,32,4,128,
0,32,5,128,
0,32,6,128,
0,32,7,128,
0,32,8,128,
0,32,9,128,
0,32,10,128,
0,32,11,128,
0,32,12,128,
0,32,13,128,
0,32,14,128,
};
static const unsigned char noise_instruments[] = {
112,64,231,25,15,0,0,0,
112,64,232,25,30,232,0,0,
240,64,0,228,0,7,0,0,
240,0,0,0,0,0,0,0,
240,0,0,0,0,0,0,0,
240,0,0,0,0,0,0,0,
240,0,0,0,0,0,0,0,
240,0,0,0,0,0,0,0,
240,0,0,0,0,0,0,0,
240,0,0,0,0,0,0,0,
240,0,0,0,0,0,0,0,
240,0,0,0,0,0,0,0,
240,0,0,0,0,0,0,0,
240,0,0,0,0,0,0,0,
240,0,0,0,0,0,0,0,
};

static const unsigned char waves[] = {
    0,0,238,238,238,189,221,221,219,238,238,238,238,0,0,0,
    0,0,2,34,34,34,119,119,119,119,119,112,0,0,0,0,
    0,0,0,0,0,0,0,0,255,255,255,255,255,255,255,255,
    0,0,0,0,0,0,0,0,0,0,0,0,255,255,255,255,
    0,1,18,35,52,69,86,103,120,137,154,171,188,205,222,239,
    254,220,186,152,118,84,50,16,18,52,86,120,154,188,222,255,
    122,205,219,117,33,19,104,189,220,151,65,1,71,156,221,184,
    15,15,15,15,15,15,15,15,15,15,15,15,15,15,15,15,
    254,252,250,248,246,244,242,240,242,244,246,248,250,252,254,255,
    254,221,204,187,170,153,136,119,138,189,241,36,87,138,189,238,
    132,17,97,237,87,71,90,173,206,163,23,121,221,32,3,71,
    193,30,40,39,145,25,9,55,99,139,190,226,45,218,130,200,
    158,12,138,129,52,165,58,183,227,153,208,174,13,8,156,169,
    120,134,153,23,76,164,238,208,124,113,183,142,155,12,80,163,
    69,172,134,101,26,82,0,114,55,73,187,122,177,133,176,164,
    198,185,73,158,42,110,149,117,126,212,18,112,65,158,235,5,
};

const hUGESong_t citytheme = {5, &order_cnt, order1, order2, order3,order4, duty_instruments, wave_instruments, noise_instruments, NULL, waves};
