#pragma bank 6
#include "hUGEDriver.h"
#include <stddef.h>

static const unsigned char order_cnt = 16;

static const unsigned char P0[] = {
    DN(E_5,4,0x000),
    DN(___,0,0x000),
    DN(___,0,0x000),
    DN(___,0,0x000),
    DN(___,0,0x422),
    DN(___,0,0x422),
    DN(___,0,0x422),
    DN(___,0,0x422),
    DN(___,0,0x422),
    DN(___,0,0x422),
    DN(___,0,0x422),
    DN(___,0,0x422),
    DN(E_5,4,0xC0D),
    DN(___,0,0x422),
    DN(___,0,0x422),
    DN(___,0,0x422),
    DN(E_5,4,0xC0B),
    DN(___,0,0x422),
    DN(___,0,0x422),
    DN(___,0,0x422),
    DN(E_5,4,0xC09),
    DN(___,0,0x000),
    DN(___,0,0x000),
    DN(___,0,0x000),
    DN(E_5,4,0xC07),
    DN(___,0,0x000),
    DN(___,0,0x000),
    DN(___,0,0x000),
    DN(E_5,4,0x000),
    DN(___,0,0x000),
    DN(___,0,0x000),
    DN(___,0,0x000),
    DN(D_5,4,0x000),
    DN(___,0,0x000),
    DN(___,0,0x000),
    DN(___,0,0x000),
    DN(___,0,0x422),
    DN(___,0,0x422),
    DN(___,0,0x422),
    DN(___,0,0x422),
    DN(___,0,0x422),
    DN(___,0,0x422),
    DN(___,0,0x422),
    DN(___,0,0x422),
    DN(___,0,0x000),
    DN(___,0,0x000),
    DN(___,0,0x000),
    DN(___,0,0x000),
    DN(Fs5,4,0x000),
    DN(___,0,0x000),
    DN(E_5,4,0x000),
    DN(___,0,0x000),
    DN(D_5,4,0x000),
    DN(___,0,0x000),
    DN(E_5,4,0x000),
    DN(___,0,0x000),
    DN(___,0,0x000),
    DN(___,0,0x000),
    DN(G_4,4,0x000),
    DN(___,0,0x000),
    DN(A_4,4,0x000),
    DN(___,0,0x000),
    DN(B_4,4,0x000),
    DN(___,0,0x000),
};
static const unsigned char P1[] = {
    DN(B_5,2,0x000),
    DN(___,0,0x000),
    DN(___,0,0x000),
    DN(___,0,0x000),
    DN(___,0,0x422),
    DN(___,0,0x422),
    DN(___,0,0x422),
    DN(___,0,0x422),
    DN(___,0,0x422),
    DN(___,0,0x422),
    DN(___,0,0x422),
    DN(___,0,0x422),
    DN(B_5,2,0xC0D),
    DN(___,0,0x422),
    DN(___,0,0x422),
    DN(___,0,0x422),
    DN(B_5,2,0xC0B),
    DN(___,0,0x422),
    DN(___,0,0x422),
    DN(___,0,0x422),
    DN(B_5,2,0xC09),
    DN(___,0,0x000),
    DN(___,0,0x000),
    DN(___,0,0x000),
    DN(B_5,2,0xC07),
    DN(___,0,0x000),
    DN(___,0,0x000),
    DN(___,0,0x000),
    DN(A_5,2,0x000),
    DN(___,0,0x000),
    DN(___,0,0x000),
    DN(___,0,0x000),
    DN(G_5,2,0x000),
    DN(___,0,0x000),
    DN(___,0,0x000),
    DN(___,0,0x000),
    DN(___,0,0x422),
    DN(___,0,0x422),
    DN(___,0,0x422),
    DN(___,0,0x422),
    DN(___,0,0x422),
    DN(___,0,0x422),
    DN(___,0,0x422),
    DN(___,0,0x422),
    DN(___,0,0x000),
    DN(___,0,0x000),
    DN(___,0,0x000),
    DN(___,0,0x000),
    DN(Cs6,2,0x000),
    DN(___,0,0x000),
    DN(B_5,2,0x000),
    DN(___,0,0x000),
    DN(A_5,2,0x000),
    DN(___,0,0x000),
    DN(B_5,2,0x000),
    DN(___,0,0x000),
    DN(___,0,0x000),
    DN(___,0,0x000),
    DN(D_5,3,0x000),
    DN(___,0,0x000),
    DN(E_5,3,0x000),
    DN(___,0,0x000),
    DN(Fs5,3,0x000),
    DN(___,0,0x000),
};
static const unsigned char P2[] = {
    DN(E_4,2,0x000),
    DN(___,0,0x000),
    DN(E_4,2,0x000),
    DN(E_4,2,0x000),
    DN(E_4,2,0x000),
    DN(___,0,0x000),
    DN(E_4,2,0x000),
    DN(E_4,2,0x000),
    DN(E_4,2,0x000),
    DN(___,0,0x000),
    DN(E_4,2,0x000),
    DN(E_4,2,0x000),
    DN(E_4,2,0x000),
    DN(___,0,0x000),
    DN(G_4,2,0x000),
    DN(G_4,2,0x000),
    DN(D_4,2,0x000),
    DN(___,0,0x000),
    DN(D_4,2,0x000),
    DN(D_4,2,0x000),
    DN(D_4,2,0x000),
    DN(___,0,0x000),
    DN(D_4,2,0x000),
    DN(D_4,2,0x000),
    DN(D_4,2,0x000),
    DN(___,0,0x000),
    DN(D_4,2,0x000),
    DN(D_4,2,0x000),
    DN(D_4,2,0x000),
    DN(___,0,0x000),
    DN(D_4,2,0x000),
    DN(D_4,2,0x000),
    DN(G_4,2,0x000),
    DN(___,0,0x000),
    DN(G_4,2,0x000),
    DN(G_4,2,0x000),
    DN(G_4,2,0x000),
    DN(___,0,0x000),
    DN(G_4,2,0x000),
    DN(G_4,2,0x000),
    DN(G_4,2,0x000),
    DN(___,0,0x000),
    DN(G_4,2,0x000),
    DN(G_4,2,0x000),
    DN(G_4,2,0x000),
    DN(___,0,0x000),
    DN(G_4,2,0x000),
    DN(G_4,2,0x000),
    DN(A_4,2,0x000),
    DN(___,0,0x000),
    DN(A_4,2,0x000),
    DN(A_4,2,0x000),
    DN(A_4,2,0x000),
    DN(___,0,0x000),
    DN(A_4,2,0x000),
    DN(A_4,2,0x000),
    DN(A_4,2,0x000),
    DN(___,0,0x000),
    DN(A_4,2,0x000),
    DN(A_4,2,0x000),
    DN(A_4,2,0x000),
    DN(___,0,0x000),
    DN(A_4,2,0x000),
    DN(A_4,2,0x000),
};
static const unsigned char P3[] = {
    DN(D_5,1,0x000),
    DN(___,0,0x000),
    DN(D_5,1,0x000),
    DN(D_5,1,0x000),
    DN(F_5,2,0x000),
    DN(___,0,0x000),
    DN(D_5,1,0x000),
    DN(D_5,1,0x000),
    DN(D_5,1,0x000),
    DN(___,0,0x000),
    DN(D_5,1,0x000),
    DN(D_5,1,0x000),
    DN(F_5,2,0x000),
    DN(___,0,0x000),
    DN(D_5,1,0x000),
    DN(D_5,1,0x000),
    DN(D_5,1,0x000),
    DN(___,0,0x000),
    DN(D_5,1,0x000),
    DN(D_5,1,0x000),
    DN(F_5,2,0x000),
    DN(___,0,0x000),
    DN(D_5,1,0x000),
    DN(D_5,1,0x000),
    DN(D_5,1,0x000),
    DN(___,0,0x000),
    DN(D_5,1,0x000),
    DN(D_5,1,0x000),
    DN(F_5,2,0x000),
    DN(___,0,0x000),
    DN(D_5,1,0x000),
    DN(D_5,1,0x000),
    DN(D_5,1,0x000),
    DN(___,0,0x000),
    DN(D_5,1,0x000),
    DN(D_5,1,0x000),
    DN(F_5,2,0x000),
    DN(___,0,0x000),
    DN(D_5,1,0x000),
    DN(D_5,1,0x000),
    DN(D_5,1,0x000),
    DN(___,0,0x000),
    DN(D_5,1,0x000),
    DN(D_5,1,0x000),
    DN(F_5,2,0x000),
    DN(___,0,0x000),
    DN(D_5,1,0x000),
    DN(D_5,1,0x000),
    DN(D_5,1,0x000),
    DN(___,0,0x000),
    DN(D_5,1,0x000),
    DN(D_5,1,0x000),
    DN(F_5,2,0x000),
    DN(___,0,0x000),
    DN(D_5,1,0x000),
    DN(D_5,1,0x000),
    DN(D_5,1,0x000),
    DN(___,0,0x000),
    DN(D_5,1,0x000),
    DN(D_5,1,0x000),
    DN(F_5,2,0x000),
    DN(___,0,0x000),
    DN(D_5,1,0x000),
    DN(D_5,1,0x000),
};
static const unsigned char P4[] = {
    DN(G_6,4,0x000),
    DN(___,0,0x000),
    DN(Fs6,4,0x000),
    DN(___,0,0x000),
    DN(___,0,0x000),
    DN(___,0,0x000),
    DN(D_6,4,0x000),
    DN(___,0,0x000),
    DN(___,0,0x482),
    DN(___,0,0x482),
    DN(___,0,0x482),
    DN(___,0,0x482),
    DN(___,0,0x000),
    DN(___,0,0x000),
    DN(___,0,0x000),
    DN(___,0,0x000),
    DN(G_6,4,0x000),
    DN(___,0,0x000),
    DN(Fs6,4,0x000),
    DN(___,0,0x000),
    DN(___,0,0x000),
    DN(___,0,0x000),
    DN(D_6,4,0x000),
    DN(___,0,0x000),
    DN(___,0,0x482),
    DN(___,0,0x482),
    DN(___,0,0x482),
    DN(___,0,0x482),
    DN(___,0,0x000),
    DN(___,0,0x000),
    DN(___,0,0x000),
    DN(___,0,0x000),
    DN(C_6,4,0x000),
    DN(___,0,0x000),
    DN(B_5,4,0x000),
    DN(___,0,0x000),
    DN(___,0,0x000),
    DN(___,0,0x000),
    DN(A_5,4,0x000),
    DN(___,0,0x000),
    DN(___,0,0x482),
    DN(___,0,0x482),
    DN(___,0,0x482),
    DN(___,0,0x482),
    DN(___,0,0x000),
    DN(___,0,0x000),
    DN(___,0,0x000),
    DN(___,0,0x000),
    DN(G_5,4,0x000),
    DN(___,0,0x000),
    DN(Fs5,4,0x000),
    DN(___,0,0x000),
    DN(D_5,4,0x000),
    DN(___,0,0x000),
    DN(E_5,4,0x000),
    DN(___,0,0x000),
    DN(___,0,0x422),
    DN(___,0,0x422),
    DN(___,0,0x422),
    DN(___,0,0x422),
    DN(___,0,0x422),
    DN(___,0,0x422),
    DN(___,0,0x422),
    DN(___,0,0x000),
};
static const unsigned char P5[] = {
    DN(A_3,2,0x000),
    DN(___,0,0x000),
    DN(___,0,0x000),
    DN(___,0,0x000),
    DN(___,0,0x000),
    DN(___,0,0x000),
    DN(___,0,0x000),
    DN(___,0,0x000),
    DN(___,0,0x000),
    DN(___,0,0x000),
    DN(___,0,0x000),
    DN(___,0,0x000),
    DN(___,0,0x000),
    DN(___,0,0x000),
    DN(___,0,0x000),
    DN(___,0,0x000),
    DN(G_3,2,0x000),
    DN(___,0,0x000),
    DN(___,0,0x000),
    DN(___,0,0x000),
    DN(___,0,0x000),
    DN(___,0,0x000),
    DN(___,0,0x000),
    DN(___,0,0x000),
    DN(___,0,0x000),
    DN(___,0,0x000),
    DN(___,0,0x000),
    DN(___,0,0x000),
    DN(___,0,0x000),
    DN(___,0,0x000),
    DN(___,0,0x000),
    DN(___,0,0x000),
    DN(C_4,2,0x000),
    DN(___,0,0x000),
    DN(___,0,0x000),
    DN(___,0,0x000),
    DN(___,0,0x000),
    DN(___,0,0x000),
    DN(___,0,0x000),
    DN(___,0,0x000),
    DN(___,0,0x000),
    DN(___,0,0x000),
    DN(___,0,0x000),
    DN(___,0,0x000),
    DN(___,0,0x000),
    DN(___,0,0x000),
    DN(___,0,0x000),
    DN(___,0,0x000),
    DN(D_4,2,0x000),
    DN(___,0,0x000),
    DN(___,0,0x000),
    DN(___,0,0x000),
    DN(___,0,0x000),
    DN(___,0,0x000),
    DN(___,0,0x000),
    DN(___,0,0x000),
    DN(___,0,0x000),
    DN(___,0,0x000),
    DN(___,0,0x000),
    DN(___,0,0x000),
    DN(___,0,0x000),
    DN(___,0,0x000),
    DN(___,0,0x000),
    DN(___,0,0x000),
};
static const unsigned char P6[] = {
    DN(G_6,4,0x000),
    DN(___,0,0x000),
    DN(Fs6,4,0x000),
    DN(___,0,0x000),
    DN(___,0,0x000),
    DN(___,0,0x000),
    DN(D_6,4,0x000),
    DN(___,0,0x000),
    DN(___,0,0x482),
    DN(___,0,0x482),
    DN(___,0,0x482),
    DN(___,0,0x482),
    DN(___,0,0x000),
    DN(___,0,0x000),
    DN(___,0,0x000),
    DN(___,0,0x000),
    DN(G_6,4,0x000),
    DN(___,0,0x000),
    DN(Fs6,4,0x000),
    DN(___,0,0x000),
    DN(___,0,0x000),
    DN(___,0,0x000),
    DN(D_6,4,0x000),
    DN(___,0,0x000),
    DN(___,0,0x482),
    DN(___,0,0x482),
    DN(___,0,0x482),
    DN(___,0,0x482),
    DN(___,0,0x000),
    DN(___,0,0x000),
    DN(___,0,0x000),
    DN(___,0,0x000),
    DN(C_6,4,0x000),
    DN(___,0,0x000),
    DN(B_5,4,0x000),
    DN(___,0,0x000),
    DN(___,0,0x000),
    DN(___,0,0x000),
    DN(A_5,4,0x000),
    DN(___,0,0x000),
    DN(___,0,0x482),
    DN(___,0,0x482),
    DN(___,0,0x482),
    DN(___,0,0x482),
    DN(___,0,0x000),
    DN(___,0,0x000),
    DN(___,0,0x000),
    DN(___,0,0x000),
    DN(D_6,4,0x000),
    DN(___,0,0x000),
    DN(E_6,4,0x000),
    DN(___,0,0x000),
    DN(G_6,4,0x000),
    DN(___,0,0x000),
    DN(B_6,4,0x000),
    DN(___,0,0x000),
    DN(___,0,0x482),
    DN(___,0,0x482),
    DN(___,0,0x482),
    DN(___,0,0x482),
    DN(___,0,0x482),
    DN(___,0,0x482),
    DN(___,0,0x482),
    DN(___,0,0x000),
};
static const unsigned char P7[] = {
    DN(A_4,4,0x000),
    DN(___,0,0x000),
    DN(___,0,0x000),
    DN(___,0,0x000),
    DN(A_4,4,0xC7E),
    DN(___,0,0x000),
    DN(___,0,0x000),
    DN(___,0,0x000),
    DN(___,0,0x000),
    DN(___,0,0x000),
    DN(___,0,0x000),
    DN(___,0,0x000),
    DN(___,0,0x000),
    DN(___,0,0x000),
    DN(A_4,4,0x000),
    DN(B_4,4,0x000),
    DN(G_4,4,0x000),
    DN(___,0,0x000),
    DN(___,0,0x000),
    DN(___,0,0x000),
    DN(G_4,4,0xC7E),
    DN(___,0,0x000),
    DN(___,0,0x000),
    DN(___,0,0x000),
    DN(___,0,0x000),
    DN(___,0,0x000),
    DN(___,0,0x000),
    DN(___,0,0x000),
    DN(___,0,0x000),
    DN(___,0,0x000),
    DN(A_4,4,0x000),
    DN(B_4,4,0x000),
    DN(C_5,4,0x000),
    DN(___,0,0x000),
    DN(___,0,0x000),
    DN(___,0,0x000),
    DN(C_5,4,0xC7E),
    DN(___,0,0x000),
    DN(___,0,0x000),
    DN(___,0,0x000),
    DN(___,0,0x000),
    DN(___,0,0x000),
    DN(___,0,0x000),
    DN(___,0,0x000),
    DN(___,0,0x000),
    DN(___,0,0x000),
    DN(A_4,4,0x000),
    DN(G_4,4,0x000),
    DN(A_4,4,0x000),
    DN(___,0,0x000),
    DN(___,0,0x000),
    DN(___,0,0x000),
    DN(A_4,4,0xC7E),
    DN(___,0,0x000),
    DN(___,0,0x000),
    DN(___,0,0x000),
    DN(___,0,0x000),
    DN(___,0,0x000),
    DN(___,0,0x000),
    DN(___,0,0x000),
    DN(___,0,0x000),
    DN(___,0,0x000),
    DN(___,0,0x000),
    DN(___,0,0x000),
};
static const unsigned char P8[] = {
    DN(E_5,2,0x000),
    DN(___,0,0x000),
    DN(___,0,0x000),
    DN(___,0,0x000),
    DN(E_5,2,0xC7E),
    DN(___,0,0x000),
    DN(___,0,0x000),
    DN(___,0,0x000),
    DN(___,0,0x000),
    DN(___,0,0x000),
    DN(___,0,0x000),
    DN(___,0,0x000),
    DN(___,0,0x000),
    DN(___,0,0x000),
    DN(E_5,2,0x000),
    DN(Fs5,2,0x000),
    DN(D_5,2,0x000),
    DN(___,0,0x000),
    DN(___,0,0x000),
    DN(___,0,0x000),
    DN(D_5,2,0xC7E),
    DN(___,0,0x000),
    DN(___,0,0x000),
    DN(___,0,0x000),
    DN(___,0,0x000),
    DN(___,0,0x000),
    DN(___,0,0x000),
    DN(___,0,0x000),
    DN(___,0,0x000),
    DN(___,0,0x000),
    DN(E_5,2,0x000),
    DN(Fs5,2,0x000),
    DN(G_5,2,0x000),
    DN(___,0,0x000),
    DN(___,0,0x000),
    DN(___,0,0x000),
    DN(G_5,2,0xC7E),
    DN(___,0,0x000),
    DN(___,0,0x000),
    DN(___,0,0x000),
    DN(___,0,0x000),
    DN(___,0,0x000),
    DN(___,0,0x000),
    DN(___,0,0x000),
    DN(___,0,0x000),
    DN(___,0,0x000),
    DN(E_5,2,0x000),
    DN(D_5,2,0x000),
    DN(E_5,2,0x000),
    DN(___,0,0x000),
    DN(___,0,0x000),
    DN(___,0,0x000),
    DN(E_5,2,0xC7E),
    DN(___,0,0x000),
    DN(___,0,0x000),
    DN(___,0,0x000),
    DN(___,0,0x000),
    DN(___,0,0x000),
    DN(___,0,0x000),
    DN(___,0,0x000),
    DN(___,0,0x000),
    DN(___,0,0x000),
    DN(___,0,0x000),
    DN(___,0,0x000),
};
static const unsigned char P9[] = {
    DN(G_5,4,0x000),
    DN(___,0,0x000),
    DN(___,0,0x000),
    DN(___,0,0x000),
    DN(___,0,0x000),
    DN(___,0,0x000),
    DN(___,0,0x000),
    DN(___,0,0x000),
    DN(A_5,4,0x000),
    DN(___,0,0x000),
    DN(___,0,0x000),
    DN(___,0,0x000),
    DN(F_5,4,0x000),
    DN(___,0,0x000),
    DN(___,0,0x000),
    DN(___,0,0x000),
    DN(F_5,4,0xC7E),
    DN(___,0,0x000),
    DN(___,0,0x000),
    DN(___,0,0x000),
    DN(___,0,0x000),
    DN(___,0,0x000),
    DN(___,0,0x000),
    DN(___,0,0x000),
    DN(___,0,0x000),
    DN(___,0,0x000),
    DN(___,0,0x000),
    DN(___,0,0x000),
    DN(___,0,0x000),
    DN(___,0,0x000),
    DN(___,0,0x000),
    DN(___,0,0x000),
    DN(C_5,4,0x000),
    DN(___,0,0x000),
    DN(___,0,0x000),
    DN(___,0,0x000),
    DN(___,0,0x000),
    DN(___,0,0x000),
    DN(___,0,0x000),
    DN(___,0,0x000),
    DN(___,0,0x000),
    DN(___,0,0x000),
    DN(___,0,0x000),
    DN(___,0,0x000),
    DN(A_4,4,0x000),
    DN(___,0,0x000),
    DN(___,0,0x000),
    DN(___,0,0x000),
    DN(D_5,4,0x000),
    DN(___,0,0x000),
    DN(___,0,0x000),
    DN(___,0,0x000),
    DN(___,0,0x000),
    DN(___,0,0x000),
    DN(___,0,0x000),
    DN(___,0,0x000),
    DN(___,0,0x000),
    DN(___,0,0x000),
    DN(G_5,4,0x000),
    DN(___,0,0x000),
    DN(A_5,4,0x000),
    DN(___,0,0x000),
    DN(B_5,4,0x000),
    DN(___,0,0x000),
};
static const unsigned char P10[] = {
    DN(D_6,2,0x000),
    DN(___,0,0x000),
    DN(___,0,0x000),
    DN(___,0,0x000),
    DN(___,0,0x000),
    DN(___,0,0x000),
    DN(___,0,0x000),
    DN(___,0,0x000),
    DN(E_6,2,0x000),
    DN(___,0,0x000),
    DN(___,0,0x000),
    DN(___,0,0x000),
    DN(C_6,2,0x000),
    DN(___,0,0x000),
    DN(___,0,0x000),
    DN(___,0,0x000),
    DN(C_6,2,0xC7E),
    DN(___,0,0x000),
    DN(___,0,0x000),
    DN(___,0,0x000),
    DN(___,0,0x000),
    DN(___,0,0x000),
    DN(___,0,0x000),
    DN(___,0,0x000),
    DN(___,0,0x000),
    DN(___,0,0x000),
    DN(___,0,0x000),
    DN(___,0,0x000),
    DN(___,0,0x000),
    DN(___,0,0x000),
    DN(___,0,0x000),
    DN(___,0,0x000),
    DN(G_5,4,0x000),
    DN(___,0,0x000),
    DN(___,0,0x000),
    DN(___,0,0x000),
    DN(___,0,0x000),
    DN(___,0,0x000),
    DN(___,0,0x000),
    DN(___,0,0x000),
    DN(___,0,0x000),
    DN(___,0,0x000),
    DN(___,0,0x000),
    DN(___,0,0x000),
    DN(E_5,4,0x000),
    DN(___,0,0x000),
    DN(___,0,0x000),
    DN(___,0,0x000),
    DN(A_5,4,0x000),
    DN(___,0,0x000),
    DN(___,0,0x000),
    DN(___,0,0x000),
    DN(___,0,0x000),
    DN(___,0,0x000),
    DN(___,0,0x000),
    DN(___,0,0x000),
    DN(___,0,0x000),
    DN(___,0,0x000),
    DN(___,0,0xE00),
    DN(___,0,0x000),
    DN(___,0,0x000),
    DN(___,0,0x000),
    DN(___,0,0x000),
    DN(___,0,0x000),
};

static const unsigned char* const order1[] = {P0,P0,P0,P0,P7,P9,P4,P6};
static const unsigned char* const order2[] = {P1,P1,P1,P1,P8,P10,P5,P5};
static const unsigned char* const order3[] = {P2,P2,P2,P2,P2,P2,P2,P2};
static const unsigned char* const order4[] = {P3,P3,P3,P3,P3,P3,P3,P3};

static const unsigned char duty_instruments[] = {
8,0,208,128,
8,64,208,128,
8,128,208,128,
8,192,208,128,
8,0,241,128,
8,64,241,128,
8,128,241,128,
8,192,241,128,
8,128,208,128,
8,128,208,128,
8,128,208,128,
8,128,208,128,
8,128,208,128,
8,128,208,128,
8,128,208,128,
};
static const unsigned char wave_instruments[] = {
0,32,0,128,
0,32,1,128,
0,32,2,128,
0,32,3,128,
0,32,4,128,
0,32,5,128,
0,32,6,128,
0,32,7,128,
0,32,8,128,
0,32,9,128,
0,32,10,128,
0,32,11,128,
0,32,12,128,
0,32,13,128,
0,32,14,128,
};
static const unsigned char noise_instruments[] = {
144,114,26,28,227,236,0,0,
144,109,7,24,29,229,0,29,
240,0,0,0,0,0,0,0,
240,0,0,0,0,0,0,0,
240,0,0,0,0,0,0,0,
240,0,0,0,0,0,0,0,
240,0,0,0,0,0,0,0,
240,0,0,0,0,0,0,0,
240,0,0,0,0,0,0,0,
240,0,0,0,0,0,0,0,
240,0,0,0,0,0,0,0,
240,0,0,0,0,0,0,0,
240,0,0,0,0,0,0,0,
240,0,0,0,0,0,0,0,
240,0,0,0,0,0,0,0,
};

static const unsigned char waves[] = {
    0,0,11,187,187,187,187,0,0,0,0,0,0,0,0,0,
    0,0,238,238,238,189,221,221,219,238,238,238,238,0,0,0,
    0,0,0,0,0,0,0,0,255,255,255,255,255,255,255,255,
    0,0,0,0,0,0,0,0,0,0,0,0,255,255,255,255,
    0,1,18,35,52,69,86,103,120,137,154,171,188,205,222,239,
    254,220,186,152,118,84,50,16,18,52,86,120,154,188,222,255,
    122,205,219,117,33,19,104,189,220,151,65,1,71,156,221,184,
    15,15,15,15,15,15,15,15,15,15,15,15,15,15,15,15,
    254,252,250,248,246,244,242,240,242,244,246,248,250,252,254,255,
    254,221,204,187,170,153,136,119,138,189,241,36,87,138,189,238,
    132,17,97,237,87,71,90,173,206,163,23,121,221,32,3,71,
    118,32,133,49,131,196,33,135,140,109,94,150,93,22,131,14,
    219,35,168,96,179,133,203,45,220,169,48,76,210,230,168,71,
    81,14,194,204,69,170,59,202,226,216,82,44,149,99,81,227,
    203,219,176,167,70,110,75,190,148,148,230,218,135,209,224,96,
    226,72,179,86,20,103,43,186,131,189,106,116,20,42,135,137,
};

const hUGESong_t undergroundtheme = {5, &order_cnt, order1, order2, order3,order4, duty_instruments, wave_instruments, noise_instruments, NULL, waves};
